<?xml version="1.0" encoding="UTF-8"?>
<svg version="1.1" xmlns="http://www.w3.org/2000/svg" width="100" height="100">
<path d="M0 0 C1.02754395 -0.00574036 2.05508789 -0.01148071 3.11376953 -0.01739502 C5.27183252 -0.02145184 7.42997111 -0.01056392 9.58789062 0.01464844 C12.867578 0.04680224 16.14233859 0.01487943 19.421875 -0.0234375 C21.53126074 -0.01947219 23.64064345 -0.01178388 25.75 0 C26.71695801 -0.01214539 27.68391602 -0.02429077 28.68017578 -0.0368042 C35.97675891 0.1119085 41.31039804 1.9862173 46.875 6.796875 C52.51006732 13.31509114 53.77761565 19.50330578 53.671875 27.921875 C53.67761536 28.94941895 53.68335571 29.97696289 53.68927002 31.03564453 C53.69332684 33.19370752 53.68243892 35.35184611 53.65722656 37.50976562 C53.62507276 40.789453 53.65699557 44.06421359 53.6953125 47.34375 C53.69134719 49.45313574 53.68365888 51.56251845 53.671875 53.671875 C53.69009308 55.12231201 53.69009308 55.12231201 53.7086792 56.60205078 C53.5599665 63.89863391 51.6856577 69.23227304 46.875 74.796875 C40.35678386 80.43194232 34.16856922 81.69949065 25.75 81.59375 C24.72245605 81.59949036 23.69491211 81.60523071 22.63623047 81.61114502 C20.47816748 81.61520184 18.32002889 81.60431392 16.16210938 81.57910156 C12.882422 81.54694776 9.60766141 81.57887057 6.328125 81.6171875 C4.21873926 81.61322219 2.10935655 81.60553388 0 81.59375 C-0.96695801 81.60589539 -1.93391602 81.61804077 -2.93017578 81.6305542 C-10.22675891 81.4818415 -15.56039804 79.6075327 -21.125 74.796875 C-26.76006732 68.27865886 -28.02761565 62.09044422 -27.921875 53.671875 C-27.92761536 52.64433105 -27.93335571 51.61678711 -27.93927002 50.55810547 C-27.94332684 48.40004248 -27.93243892 46.24190389 -27.90722656 44.08398438 C-27.87507276 40.804297 -27.90699557 37.52953641 -27.9453125 34.25 C-27.94134719 32.14061426 -27.93365888 30.03123155 -27.921875 27.921875 C-27.93402039 26.95491699 -27.94616577 25.98795898 -27.9586792 24.99169922 C-27.8099665 17.69511609 -25.9356577 12.36147696 -21.125 6.796875 C-14.60678386 1.16180768 -8.41856922 -0.10574065 0 0 Z M34.875 14.796875 C33.885 16.281875 33.885 16.281875 32.875 17.796875 C33.205 18.456875 33.535 19.116875 33.875 19.796875 C35.525 19.466875 37.175 19.136875 38.875 18.796875 C38.545 17.476875 38.215 16.156875 37.875 14.796875 C36.885 14.796875 35.895 14.796875 34.875 14.796875 Z M-3.5625 29.421875 C-7.06186862 34.7409153 -6.69888095 40.64359598 -6.125 46.796875 C-4.28081802 52.44969368 -0.31231605 55.88448537 4.671875 58.875 C9.74780395 60.99897027 16.20392912 60.83945428 21.296875 58.8515625 C26.25462355 55.88809626 30.01429708 52.37898376 31.875 46.796875 C32.53975679 39.34288082 32.51933645 33.82196013 27.875 27.796875 C22.11412901 22.46806934 17.66943886 21.28178702 9.921875 21.4140625 C3.99225486 22.15906606 0.40354372 25.150751 -3.5625 29.421875 Z " fill="#FFFFFF" transform="translate(37.125,9.203125)"/>
<path d="M0 0 C3.27593689 2.5452745 5.32676302 4.93301158 6.15625 8.98828125 C6.29617873 13.70213031 5.8558839 17.62940702 2.90625 21.42578125 C-0.4146601 24.52026566 -2.37273805 25.91493025 -6.94921875 26.05078125 C-12.83256183 25.73542618 -15.83183236 24.29375384 -19.84375 19.98828125 C-22.28732377 16.16355708 -22.0671983 12.56923986 -21.44921875 8.20703125 C-20.21983073 3.70191903 -17.51674716 1.05714055 -13.59375 -1.44921875 C-8.91871806 -2.40547528 -4.26301752 -2.33924055 0 0 Z " fill="#FFFFFF" transform="translate(57.84375,38.01171875)"/>
</svg>
