<?xml version="1.0" encoding="UTF-8"?>
<svg version="1.1" xmlns="http://www.w3.org/2000/svg" width="92" height="92">
<path d="M0 0 C0.96853409 -0.01606293 1.93706818 -0.03212585 2.93495178 -0.04867554 C7.37915228 -0.09335376 11.82320504 -0.13422288 16.26757812 -0.15722656 C18.6039428 -0.17374026 20.94025791 -0.20096899 23.27636719 -0.23925781 C26.65773543 -0.29435627 30.03791944 -0.31595541 33.41967773 -0.33056641 C34.96867516 -0.36457047 34.96867516 -0.36457047 36.54896545 -0.39926147 C43.7907366 -0.37842629 49.14311244 1.20730582 55.22827148 5.19287109 C57.48217773 7.54443359 57.48217773 7.54443359 58.79077148 9.81787109 C59.24581055 10.57326172 59.70084961 11.32865234 60.16967773 12.10693359 C61.89152518 15.49979905 62.36449709 18.21439797 62.42114258 21.96459961 C62.43720551 22.9331337 62.45326843 23.90166779 62.46981812 24.89955139 C62.51449634 29.34375189 62.55536546 33.78780465 62.57836914 38.23217773 C62.59488284 40.56854241 62.62211156 42.90485752 62.66040039 45.2409668 C62.71549885 48.62233504 62.73709798 52.00251905 62.75170898 55.38427734 C62.77437836 56.41694229 62.79704773 57.44960724 62.82040405 58.51356506 C62.79956887 65.75533621 61.21383676 71.10771204 57.22827148 77.19287109 C54.87670898 79.44677734 54.87670898 79.44677734 52.60327148 80.75537109 C51.84788086 81.21041016 51.09249023 81.66544922 50.31420898 82.13427734 C46.92134353 83.85612479 44.20674461 84.3290967 40.45654297 84.38574219 C39.48800888 84.40180511 38.51947479 84.41786804 37.52159119 84.43441772 C33.07739069 84.47909595 28.63333793 84.51996507 24.18896484 84.54296875 C21.85260017 84.55948245 19.51628506 84.58671117 17.18017578 84.625 C13.79880754 84.68009846 10.41862353 84.70169759 7.03686523 84.71630859 C5.48786781 84.75031265 5.48786781 84.75031265 3.90757751 84.78500366 C-3.33419363 84.76416848 -8.68656947 83.17843637 -14.77172852 79.19287109 C-17.02563477 76.84130859 -17.02563477 76.84130859 -18.33422852 74.56787109 C-18.78926758 73.81248047 -19.24430664 73.05708984 -19.71313477 72.27880859 C-21.43498221 68.88594314 -21.90795413 66.17134422 -21.96459961 62.42114258 C-21.98066254 61.45260849 -21.99672546 60.4840744 -22.01327515 59.4861908 C-22.05795337 55.0419903 -22.09882249 50.59793754 -22.12182617 46.15356445 C-22.13833987 43.81719978 -22.1655686 41.48088467 -22.20385742 39.14477539 C-22.25895588 35.76340715 -22.28055502 32.38322314 -22.29516602 29.00146484 C-22.31783539 27.9687999 -22.34050476 26.93613495 -22.36386108 25.87217712 C-22.3430259 18.63040598 -20.75729379 13.27803014 -16.77172852 7.19287109 C-14.42016602 4.93896484 -14.42016602 4.93896484 -12.14672852 3.63037109 C-11.01364258 2.9478125 -11.01364258 2.9478125 -9.85766602 2.25146484 C-6.46480056 0.5296174 -3.75020164 0.05664548 0 0 Z M-12.11352539 14.76318359 C-14.44185833 19.57891109 -14.34576026 23.78336806 -14.30297852 29.06787109 C-14.30680542 30.11056152 -14.31063232 31.15325195 -14.3145752 32.22753906 C-14.3172903 34.42627939 -14.30995736 36.62505223 -14.29321289 38.82373047 C-14.27179856 42.18188756 -14.2930293 45.53790524 -14.31860352 48.89599609 C-14.31596017 51.0366258 -14.31083505 53.17725418 -14.30297852 55.31787109 C-14.31107544 56.31802246 -14.31917236 57.31817383 -14.32751465 58.34863281 C-14.25031371 64.11132541 -13.81631748 67.7536058 -9.77172852 72.19287109 C-4.5329752 76.96586899 0.37028454 76.77862933 7.10327148 76.72412109 C8.66730713 76.72986145 8.66730713 76.72986145 10.26293945 76.73571777 C12.46167978 76.73843288 14.66045262 76.73109994 16.85913086 76.71435547 C20.21728795 76.69294113 23.57330563 76.71417188 26.93139648 76.73974609 C29.07202619 76.73710275 31.21265457 76.73197763 33.35327148 76.72412109 C34.85349854 76.73626648 34.85349854 76.73626648 36.3840332 76.74865723 C42.1467258 76.67145629 45.7890062 76.23746006 50.22827148 72.19287109 C55.00126938 66.95411778 54.81402972 62.05085804 54.75952148 55.31787109 C54.76334839 54.27518066 54.76717529 53.23249023 54.77111816 52.15820312 C54.77383327 49.9594628 54.76650033 47.76068996 54.74975586 45.56201172 C54.72834152 42.20385463 54.74957227 38.84783694 54.77514648 35.48974609 C54.77250314 33.34911639 54.76737802 31.20848801 54.75952148 29.06787109 C54.76761841 28.06771973 54.77571533 27.06756836 54.78405762 26.03710938 C54.70685668 20.27441677 54.27286045 16.63213638 50.22827148 12.19287109 C44.98951817 7.4198732 40.08625843 7.60711286 33.35327148 7.66162109 C32.31058105 7.65779419 31.26789062 7.65396729 30.19360352 7.65002441 C27.99486319 7.64730931 25.79609035 7.65464224 23.59741211 7.67138672 C20.23925502 7.69280105 16.88323733 7.67157031 13.52514648 7.64599609 C11.38451678 7.64863944 9.2438884 7.65376456 7.10327148 7.66162109 C5.60304443 7.64947571 5.60304443 7.64947571 4.07250977 7.63708496 C-3.2711379 7.73546545 -7.05512337 9.21117603 -12.11352539 14.76318359 Z " fill="#FFFFFF" transform="translate(25.771728515625,3.80712890625)"/>
<path d="M0 0 C4.31633181 3.18586395 7.91120739 6.79612218 9.625 11.9375 C10.28975679 19.39149418 10.26933645 24.91241487 5.625 30.9375 C0.27239477 36.01561266 -4.55870985 37.42959737 -11.8125 37.24609375 C-16.73517408 36.65327172 -20.5834242 34.89842874 -23.9453125 31.21875 C-28.27554401 25.37912351 -29.13225506 20.12609028 -28.375 12.9375 C-26.5800413 7.00900783 -23.37401542 3.447447 -18.375 -0.0625 C-12.52719658 -2.01176781 -5.85288508 -1.84257493 0 0 Z M-18.75 11.125 C-20.85361587 14.76587363 -21.31718945 17.88371011 -20.375 21.9375 C-18.61351565 24.9534732 -16.54759122 27.35120439 -13.375 28.9375 C-8.38493189 29.43650681 -6.33608133 29.52482748 -2 26.875 C1.04265401 23.47012527 2.07823859 21.46780882 2.625 16.9375 C1.52700951 13.27753169 0.47281454 10.81454952 -2.1875 8.0625 C-8.86834919 4.6266347 -13.39053833 6.18865372 -18.75 11.125 Z " fill="#FFFFFF" transform="translate(55.375,28.0625)"/>
<path d="M0 0 C2.625 0.375 2.625 0.375 5 1 C5.625 3.375 5.625 3.375 6 6 C5.34 6.66 4.68 7.32 4 8 C1.375 7.625 1.375 7.625 -1 7 C-1.625 4.625 -1.625 4.625 -2 2 C-1.34 1.34 -0.68 0.68 0 0 Z " fill="#FFFFFF" transform="translate(65,21)"/>
</svg>
