<?xml version="1.0" encoding="UTF-8"?>
<svg version="1.1" xmlns="http://www.w3.org/2000/svg" width="25" height="25">
<path d="M0 0 C1.15822266 -0.01740234 1.15822266 -0.01740234 2.33984375 -0.03515625 C7.9888505 -0.00578533 7.9888505 -0.00578533 10.21923828 1.65576172 C12.45380389 4.65534445 11.92896364 8.28341986 11.875 11.875 C11.88660156 12.64714844 11.89820312 13.41929688 11.91015625 14.21484375 C11.88078533 19.8638505 11.88078533 19.8638505 10.21923828 22.09423828 C7.21965555 24.32880389 3.59158014 23.80396364 0 23.75 C-1.15822266 23.76740234 -1.15822266 23.76740234 -2.33984375 23.78515625 C-7.9888505 23.75578533 -7.9888505 23.75578533 -10.21923828 22.09423828 C-12.45380389 19.09465555 -11.92896364 15.46658014 -11.875 11.875 C-11.88660156 11.10285156 -11.89820313 10.33070312 -11.91015625 9.53515625 C-11.88078533 3.8861495 -11.88078533 3.8861495 -10.21923828 1.65576172 C-7.21965555 -0.57880389 -3.59158014 -0.05396364 0 0 Z M-8.5 4.375 C-8.59975032 6.88636104 -8.63882183 9.36403415 -8.625 11.875 C-8.62886719 12.57753906 -8.63273438 13.28007812 -8.63671875 14.00390625 C-8.94390931 17.47928808 -8.94390931 17.47928808 -7.5 20.375 C-4.98863896 20.47475032 -2.51096585 20.51382183 0 20.5 C0.70253906 20.50386719 1.40507812 20.50773437 2.12890625 20.51171875 C5.60428808 20.81890931 5.60428808 20.81890931 8.5 19.375 C8.59975032 16.86363896 8.63882183 14.38596585 8.625 11.875 C8.62886719 11.17246094 8.63273437 10.46992188 8.63671875 9.74609375 C8.94390931 6.27071192 8.94390931 6.27071192 7.5 3.375 C4.98863896 3.27524968 2.51096585 3.23617817 0 3.25 C-0.70253906 3.24613281 -1.40507812 3.24226562 -2.12890625 3.23828125 C-5.60428808 2.93109069 -5.60428808 2.93109069 -8.5 4.375 Z " fill="#FFFFFF" transform="translate(12.5,0.625)"/>
<path d="M0 0 C1.33359073 6.42548263 1.33359073 6.42548263 -0.125 8.9375 C-2.63647631 10.36066991 -4.15503228 10.42674516 -7 10 C-8.8125 8.8125 -8.8125 8.8125 -10 7 C-10.42674516 4.15503228 -10.36066991 2.63647631 -8.9375 0.125 C-5.88430685 -1.64782183 -3.33588292 -0.69235306 0 0 Z M-6 2 C-6.33 3.32 -6.66 4.64 -7 6 C-5.68 6.33 -4.36 6.66 -3 7 C-2.67 5.68 -2.34 4.36 -2 3 C-3.32 2.67 -4.64 2.34 -6 2 Z " fill="#FFFFFF" transform="translate(17,8)"/>
<path d="M0 0 C0.99 0.33 1.98 0.66 3 1 C3 1.66 3 2.32 3 3 C2.01 3 1.02 3 0 3 C0 2.01 0 1.02 0 0 Z " fill="#FFFFFF" transform="translate(17,5)"/>
</svg>
