<?xml version="1.0" encoding="UTF-8"?>
<svg version="1.1" xmlns="http://www.w3.org/2000/svg" width="25" height="25">
<path d="M0 0 C1.01513672 -0.01740234 1.01513672 -0.01740234 2.05078125 -0.03515625 C4.80308414 -0.01887043 7.00150547 0.10473188 9.4453125 1.4296875 C11.09186893 4.46666936 10.93266255 7.51135138 10.875 10.875 C10.88660156 11.55175781 10.89820312 12.22851562 10.91015625 12.92578125 C10.89387043 15.67808414 10.77026812 17.87650547 9.4453125 20.3203125 C6.40833064 21.96686893 3.36364862 21.80766255 0 21.75 C-0.67675781 21.76160156 -1.35351562 21.77320312 -2.05078125 21.78515625 C-4.80308414 21.76887043 -7.00150547 21.64526812 -9.4453125 20.3203125 C-11.09186893 17.28333064 -10.93266255 14.23864862 -10.875 10.875 C-10.88660156 10.19824219 -10.89820313 9.52148438 -10.91015625 8.82421875 C-10.89387043 6.07191586 -10.77026812 3.87349453 -9.4453125 1.4296875 C-6.40833064 -0.21686893 -3.36364862 -0.05766255 0 0 Z M-4.5 8.375 C-4.83333333 10.875 -4.83333333 10.875 -4.5 13.375 C-2.67296773 15.6241908 -2.67296773 15.6241908 0 15.625 C2.67296773 15.6241908 2.67296773 15.6241908 4.5 13.375 C4.83333333 10.875 4.83333333 10.875 4.5 8.375 C2.67296773 6.1258092 2.67296773 6.1258092 0 6.125 C-2.67296773 6.1258092 -2.67296773 6.1258092 -4.5 8.375 Z " fill="#FFFFFF" transform="translate(12.5,1.625)"/>
<path d="M0 0 C2.5 0.125 2.5 0.125 3.5 1.125 C3.625 3.625 3.625 3.625 3.5 6.125 C2.5 7.125 2.5 7.125 0 7.25 C-2.5 7.125 -2.5 7.125 -3.5 6.125 C-3.625 3.625 -3.625 3.625 -3.5 1.125 C-2.5 0.125 -2.5 0.125 0 0 Z " fill="#FFFFFF" transform="translate(12.5,8.875)"/>
</svg>
