<?xml version="1.0" encoding="UTF-8"?>
<svg version="1.1" xmlns="http://www.w3.org/2000/svg" width="25" height="25">
<path d="M0 0 C4.14613048 1.79037453 6.20962547 3.85386952 8 8 C8.54957375 12.31807946 8.2941115 14.44328894 6.25 18.3125 C3.04099248 22.14548121 1.52401498 22.86145318 -3.4375 23.3125 C-8.32530912 22.88374481 -10.65865598 21.52018989 -13.875 17.875 C-15.5166794 13.67959708 -15.46662934 10.26519756 -14 6 C-10.30552331 0.91490568 -6.31908956 -1.05318159 0 0 Z M-12 8 C-12.67639058 11.02280746 -12.45558841 12.81088113 -12 16 C-9.95694308 19.06458538 -8.55920198 19.82153128 -5.0625 20.9375 C-1.38950179 21.01245915 0.09501066 20.178742 3 18 C5.39286884 15.60713116 5.32050616 14.90552906 5.375 11.625 C5.28452305 8.50354514 5.10803947 7.18456743 3.5 4.4375 C-2.71922807 0.86144386 -8.10189396 2.15284094 -12 8 Z " fill="#9C9C9C" transform="translate(16,1)"/>
<path d="M0 0 C1.9375 1 1.9375 1 3 3 C3.41424452 5.85303618 3.27949062 8.06534844 3 11 C-0.69486103 13.46324069 -2.63293092 13.38991688 -7 13 C-8.9375 11.9375 -8.9375 11.9375 -10 10 C-10.36528977 6.5906288 -10.6140629 4.11976176 -8.9375 1.0625 C-5.88023824 -0.6140629 -3.4093712 -0.36528977 0 0 Z M-7 3 C-6.67 3.66 -6.34 4.32 -6 5 C-5.34 4.34 -4.68 3.68 -4 3 C-4.99 3 -5.98 3 -7 3 Z M0 4 C-0.66 5.65 -1.32 7.3 -2 9 C-3.65 8.67 -5.3 8.34 -7 8 C-6.67 8.99 -6.34 9.98 -6 11 C-2.535 10.505 -2.535 10.505 1 10 C1 8.02 1 6.04 1 4 C0.67 4 0.34 4 0 4 Z M-4 5 C-4 5.99 -4 6.98 -4 8 C-3.34 7.34 -2.68 6.68 -2 6 C-2.66 5.67 -3.32 5.34 -4 5 Z " fill="#7D7D7D" transform="translate(16,6)"/>
<path d="M0 0 C0.33 0 0.66 0 1 0 C1.268125 1.258125 1.53625 2.51625 1.8125 3.8125 C2.83952017 8.12304967 2.83952017 8.12304967 6 11 C8.65533766 11.82552082 11.27298538 12.41883295 14 13 C14 13.66 14 14.32 14 15 C9.01530948 15.29321709 5.95179356 15.18338925 2 12 C-0.88779449 8.31557255 -1.4219243 5.64116728 -1 1 C-0.67 0.67 -0.34 0.34 0 0 Z " fill="#AAAAAA" transform="translate(2,9)"/>
<path d="M0 0 C3.375 -0.125 3.375 -0.125 7 0 C9.32528287 2.32528287 9.29511025 2.84665898 9.3125 6 C9.32925781 6.70125 9.34601562 7.4025 9.36328125 8.125 C9.18345703 9.053125 9.18345703 9.053125 9 10 C5.3558226 12.4294516 3.28758728 12.16179575 -1 12 C-1 11.34 -1 10.68 -1 10 C1.64 9.67 4.28 9.34 7 9 C6.67 6.69 6.34 4.38 6 2 C3.03 1.505 3.03 1.505 0 1 C0 0.67 0 0.34 0 0 Z " fill="#A6A6A6" transform="translate(10,7)"/>
<path d="M0 0 C0 0.33 0 0.66 0 1 C-2.01822917 1.42317708 -4.03645833 1.84635417 -6.0546875 2.26953125 C-8.37046549 2.92308838 -8.37046549 2.92308838 -10 6 C-10.39013716 7.9896995 -10.73202649 9.99019869 -11 12 C-11.33 12 -11.66 12 -12 12 C-13.56569343 4.89416058 -13.56569343 4.89416058 -11.0625 0.9375 C-6.81821639 -1.74765902 -4.81537909 -1.06101573 0 0 Z " fill="#7B7B7B" transform="translate(15,3)"/>
<path d="M0 0 C1.32 0 2.64 0 4 0 C4.625 1.875 4.625 1.875 5 4 C4.34 4.66 3.68 5.32 3 6 C0.9375 5.8125 0.9375 5.8125 -1 5 C-1.33 4.01 -1.66 3.02 -2 2 C-0.68 2.33 0.64 2.66 2 3 C1.34 2.01 0.68 1.02 0 0 Z " fill="#B4B4B4" transform="translate(11,10)"/>
<path d="M0 0 C0.99 0.33 1.98 0.66 3 1 C1.35 2.65 -0.3 4.3 -2 6 C-3.32 5.34 -4.64 4.68 -6 4 C-5.195625 3.525625 -4.39125 3.05125 -3.5625 2.5625 C-1.15246512 1.23099846 -1.15246512 1.23099846 0 0 Z " fill="#909090" transform="translate(20,17)"/>
</svg>
