<?xml version="1.0" encoding="UTF-8"?>
<svg version="1.1" xmlns="http://www.w3.org/2000/svg" width="200" height="200">
<path d="M0 0 C0.82055374 -0.00671722 1.64110748 -0.01343445 2.48652649 -0.02035522 C5.1828935 -0.03925698 7.87901042 -0.04325583 10.57543945 -0.04541016 C12.4648295 -0.05184485 14.35421856 -0.0585737 16.24360657 -0.06558228 C20.20018826 -0.07753648 24.15668278 -0.08126515 28.11328125 -0.08007812 C33.15552302 -0.07987535 38.19719854 -0.10714275 43.23930645 -0.14162254 C47.14210011 -0.16398666 51.04475971 -0.16791272 54.94761086 -0.16685867 C56.80494952 -0.16920167 58.66229263 -0.17795088 60.51956749 -0.19352341 C76.75996778 -0.31691717 89.46295928 1.79916593 101.72387695 13.39208984 C110.41341777 22.58513676 114.80680138 33.1645755 114.79174805 45.78930664 C114.79846527 46.60986038 114.8051825 47.43041412 114.81210327 48.27583313 C114.83100503 50.97220014 114.83500387 53.66831706 114.8371582 56.36474609 C114.8435929 58.25413614 114.85032175 60.1435252 114.85733032 62.03291321 C114.86928453 65.9894949 114.87301319 69.94598942 114.87182617 73.90258789 C114.8716234 78.94482966 114.8988908 83.98650518 114.93337059 89.02861309 C114.95573471 92.93140675 114.95966077 96.83406635 114.95860672 100.7369175 C114.96094972 102.59425616 114.96969893 104.45159927 114.98527145 106.30887413 C115.10866522 122.54927442 112.99258212 135.25226592 101.3996582 147.51318359 C92.20661128 156.20272441 81.62717255 160.59610802 69.00244141 160.58105469 C68.18188766 160.58777191 67.36133392 160.59448914 66.51591492 160.60140991 C63.81954791 160.62031167 61.12343098 160.62431051 58.42700195 160.62646484 C56.53761191 160.63289954 54.64822284 160.63962839 52.75883484 160.64663696 C48.80225314 160.65859117 44.84575863 160.66231983 40.88916016 160.66113281 C35.84691839 160.66093004 30.80524286 160.68819744 25.76313496 160.72267723 C21.8603413 160.74504135 17.95768169 160.74896741 14.05483055 160.74791336 C12.19749188 160.75025636 10.34014878 160.75900557 8.48287392 160.77457809 C-7.75752637 160.89797186 -20.46051787 158.78188876 -32.72143555 147.18896484 C-41.41097636 137.99591792 -45.80435998 127.41647919 -45.78930664 114.79174805 C-45.79602386 113.97119431 -45.80274109 113.15064056 -45.80966187 112.30522156 C-45.82856362 109.60885455 -45.83256247 106.91273762 -45.8347168 104.21630859 C-45.84115149 102.32691855 -45.84788034 100.43752948 -45.85488892 98.54814148 C-45.86684312 94.59155979 -45.87057179 90.63506527 -45.86938477 86.6784668 C-45.86918199 81.63622503 -45.89644939 76.59454951 -45.93092918 71.5524416 C-45.9532933 67.64964794 -45.95721936 63.74698833 -45.95616531 59.84413719 C-45.95850831 57.98679852 -45.96725752 56.12945542 -45.98283005 54.27218056 C-46.10622381 38.03178027 -43.99014071 25.32878877 -32.3972168 13.06787109 C-23.20416988 4.37833028 -12.62473115 -0.01505334 0 0 Z M77.3137207 28.41552734 C75.2127551 30.22373508 75.2127551 30.22373508 75.0637207 33.29052734 C75.29384213 36.21786566 75.29384213 36.21786566 76.6262207 38.16552734 C79.41228113 39.8371636 81.32110932 39.75429359 84.5012207 39.29052734 C86.57978151 37.71357102 86.57978151 37.71357102 87.5012207 35.29052734 C87.4216048 32.02627535 86.98374168 30.75696429 84.6262207 28.47802734 C81.74834568 26.86980307 80.23612545 26.91257633 77.3137207 28.41552734 Z M2.6887207 56.54052734 C-4.40555994 66.35703196 -5.65234458 76.50513361 -4.4987793 88.29052734 C-2.2412002 99.07080148 4.24578218 107.40161799 13.07543945 113.78271484 C23.05137969 119.98354082 34.273245 121.01361024 45.65356445 118.63037109 C56.83831175 115.00670121 65.30377122 107.1017573 70.8215332 96.83349609 C74.87265921 87.38559034 75.1014105 76.11492271 71.9387207 66.35302734 C67.36213676 55.67966549 59.11208256 47.42961129 48.4387207 42.85302734 C31.02182681 37.21024685 14.29512281 42.76562548 2.6887207 56.54052734 Z " fill="#FFFFFF" transform="translate(65.498779296875,19.70947265625)"/>
<path d="M0 0 C6.47876645 4.6089754 11.44228933 9.97851797 13 18 C13.71702306 27.65223349 12.94416829 34.67780326 6.75 42.25 C1.85651406 47.51592885 -3.48278608 50.66443554 -10.734375 51.203125 C-20.74768125 51.35877225 -26.8344695 49.78250673 -34.23828125 42.90234375 C-40.23871857 36.42293582 -41.37780443 29.7364938 -41.2734375 21.16796875 C-40.62561806 13.6625178 -37.64657388 7.51220966 -32.03515625 2.47265625 C-22.91890853 -4.12393759 -9.95384674 -5.86862214 0 0 Z " fill="#FFFFFF" transform="translate(114,76)"/>
</svg>
